<svg xmlns="http://www.w3.org/2000/svg" width="1200" height="240" viewBox="0 0 1200 240" preserveAspectRatio="none">
  <title>Decorative full-width striped bakery canopy</title>
  <desc>Original cream and blush fabric slopes from a wall-mounted green rail to a projecting front bar, with stitched stripes and an extended deep scalloped valance. The front spans the full artwork width without transparent side gutters. No reference imagery or lettering.</desc>
  <defs>
    <linearGradient id="awning-slope-shade" x1="0" y1="0" x2="0" y2="1">
      <stop stop-color="#654d3b" stop-opacity=".24"/>
      <stop offset=".15" stop-color="#654d3b" stop-opacity=".09"/>
      <stop offset=".45" stop-color="#ffffff" stop-opacity=".08"/>
      <stop offset=".8" stop-color="#ffffff" stop-opacity=".24"/>
      <stop offset="1" stop-color="#654d3b" stop-opacity=".2"/>
    </linearGradient>
    <linearGradient id="awning-valance-shade" x1="0" y1="0" x2="0" y2="1">
      <stop stop-color="#654d3b" stop-opacity=".24"/>
      <stop offset=".35" stop-color="#654d3b" stop-opacity=".05"/>
      <stop offset="1" stop-color="#ffffff" stop-opacity=".16"/>
    </linearGradient>
    <linearGradient id="awning-rail" x1="0" y1="0" x2="0" y2="1">
      <stop stop-color="#71816b"/>
      <stop offset=".3" stop-color="#415743"/>
      <stop offset="1" stop-color="#283e30"/>
    </linearGradient>
    <clipPath id="awning-slope-clip">
      <path d="M12 13H1188L1194 78Q1195 102 1200 124H0Q5 102 6 78Z"/>
    </clipPath>
    <pattern id="awning-hanging-panels" width="100" height="240" patternUnits="userSpaceOnUse">
      <path d="M0 128H50V181Q50 234 25 234Q0 234 0 181Z" fill="#fffaf1"/>
      <path d="M50 128H100V181Q100 234 75 234Q50 234 50 181Z" fill="#f7dbe4"/>
      <path d="M0 132V181Q0 234 25 234Q50 234 50 181V132M50 181Q50 234 75 234Q100 234 100 181V132" fill="none" stroke="#a78171" stroke-width="1.2"/>
      <path d="M4 180Q4 229 25 229Q46 229 46 180M54 180Q54 229 75 229Q96 229 96 180" fill="none" stroke="#b99b88" stroke-width=".8" opacity=".6"/>
    </pattern>
    <mask id="awning-valance-mask" maskUnits="userSpaceOnUse" x="0" y="128" width="1200" height="108">
      <rect y="128" width="1200" height="108" fill="url(#awning-hanging-panels)"/>
    </mask>
  </defs>
  <g id="awning-sloped-fabric" clip-path="url(#awning-slope-clip)">
    <rect y="13" width="1200" height="112" fill="#fffaf1"/>
    <g fill="#f7dbe4">
      <path d="M61 13H110L105 78Q104 102 100 124H50Q54 102 55 78Z"/>
      <path d="M159 13H208L204 78Q203 102 200 124H150Q153 102 154 78Z"/>
      <path d="M257 13H306L303 78Q302 102 300 124H250Q252 102 253 78Z"/>
      <path d="M355 13H404L402 78Q401 102 400 124H350Q352 102 352 78Z"/>
      <path d="M453 13H502L501 78Q500 102 500 124H450Q451 102 451 78Z"/>
      <path d="M551 13H600V124H550Q550 102 550.5 78Z"/>
      <path d="M649 13H698L699 78Q700 102 700 124H650Q650 102 649.5 78Z"/>
      <path d="M747 13H796L798 78Q799 102 800 124H750Q749 102 749 78Z"/>
      <path d="M845 13H894L897 78Q898 102 900 124H850Q848 102 848 78Z"/>
      <path d="M943 13H992L996 78Q997 102 1000 124H950Q948 102 947 78Z"/>
      <path d="M1041 13H1090L1095 78Q1096 102 1100 124H1050Q1047 102 1046 78Z"/>
      <path d="M1139 13H1188L1194 78Q1195 102 1200 124H1150Q1146 102 1145 78Z"/>
    </g>
    <rect y="13" width="1200" height="112" fill="url(#awning-slope-shade)"/>
    <g fill="none" stroke="#ad8b79" stroke-width=".8" opacity=".5">
      <path d="M61 16L55 78Q54 102 50 122M110 16L105 78Q104 102 100 122M159 16L154 78Q153 102 150 122M208 16L204 78Q203 102 200 122"/>
      <path d="M257 16L253 78Q252 102 250 122M306 16L303 78Q302 102 300 122M355 16L352 78Q352 102 350 122M404 16L402 78Q401 102 400 122"/>
      <path d="M453 16L451 78Q451 102 450 122M502 16L501 78Q500 102 500 122M551 16L550.5 78Q550 102 550 122M600 16V122"/>
      <path d="M649 16L649.5 78Q650 102 650 122M698 16L699 78Q700 102 700 122M747 16L749 78Q749 102 750 122M796 16L798 78Q799 102 800 122"/>
      <path d="M845 16L848 78Q848 102 850 122M894 16L897 78Q898 102 900 122M943 16L947 78Q948 102 950 122M992 16L996 78Q997 102 1000 122"/>
      <path d="M1041 16L1046 78Q1047 102 1050 122M1090 16L1095 78Q1096 102 1100 122M1139 16L1145 78Q1146 102 1150 122"/>
    </g>
    <path d="M5 110H1195" fill="none" stroke="#fffaf1" stroke-width="2" opacity=".36"/>
  </g>
  <g id="awning-hanging-valance">
    <rect y="128" width="1200" height="108" fill="url(#awning-hanging-panels)"/>
    <rect y="128" width="1200" height="108" fill="url(#awning-valance-shade)" mask="url(#awning-valance-mask)"/>
  </g>
  <g id="awning-front-bar">
    <rect y="122" width="1200" height="8" fill="#967861"/>
    <rect y="122" width="1200" height="3" fill="#fff4df"/>
    <path d="M0 129H1200" stroke="#6b5745" stroke-width="1.2" opacity=".5"/>
  </g>
  <g id="awning-wall-rail">
    <rect width="1200" height="16" fill="url(#awning-rail)"/>
    <path d="M0 3H1200" stroke="#b3bc9d" stroke-width="1.5" opacity=".65"/>
    <path d="M0 15H1200" stroke="#263b2b" stroke-width="2"/>
  </g>
</svg>
